<svg width="204" height="32" viewBox="0 0 204 32" fill="none" xmlns="http://www.w3.org/2000/svg">
<rect width="31.0244" height="31.0244" rx="2" fill="#3C0675"/>
<rect x="3.87891" y="3.87793" width="10.3415" height="3.87805" fill="white"/>
<rect x="15.5117" y="3.87793" width="11.6341" height="3.87805" fill="white"/>
<rect x="10.3418" y="9.04883" width="16.8049" height="3.87805" fill="white"/>
<rect x="20.6836" y="14.2197" width="6.46341" height="6.46341" fill="white"/>
<rect x="3.87891" y="21.9756" width="5.17073" height="5.17073" fill="white"/>
<rect x="10.3418" y="14.2197" width="9.04878" height="6.46341" fill="white"/>
<rect x="10.3418" y="21.9756" width="16.8049" height="5.17073" fill="white"/>
<rect x="3.87891" y="9.04883" width="5.17073" height="11.6341" fill="white"/>
<path d="M62.76 7.93025L62.1809 11.1568H58.3132L56.3069 22.5117H52.2324L54.2387 11.1568H50.3916L50.9708 7.93025H62.76ZM62.0468 16.6998C62.2674 15.5002 62.6742 14.4523 63.2671 13.556C63.86 12.6598 64.5701 11.9703 65.3974 11.4877C66.2385 11.0051 67.121 10.7638 68.0448 10.7638C68.8446 10.7638 69.5064 10.9224 70.0304 11.2395C70.5544 11.5567 70.9198 11.9841 71.1266 12.5219L71.4162 10.9086H75.47L73.4224 22.5117H69.3685L69.6581 20.8985C69.2582 21.4362 68.7343 21.8637 68.0862 22.1808C67.4381 22.4979 66.7211 22.6565 65.9352 22.6565C64.7218 22.6565 63.7497 22.2566 63.0189 21.4569C62.2881 20.6434 61.9227 19.5403 61.9227 18.1476C61.9227 17.6926 61.9641 17.21 62.0468 16.6998ZM70.4027 16.6998C70.4441 16.493 70.4647 16.2999 70.4647 16.1207C70.4647 15.5416 70.2993 15.0934 69.9683 14.7763C69.6512 14.4592 69.2375 14.3006 68.7274 14.3006C68.1207 14.3006 67.576 14.5143 67.0934 14.9418C66.6108 15.3554 66.3075 15.9414 66.1834 16.6998C66.142 16.9066 66.1213 17.1066 66.1213 17.2996C66.1213 17.8787 66.2799 18.3269 66.597 18.644C66.928 18.9611 67.3485 19.1197 67.8587 19.1197C68.4654 19.1197 69.01 18.906 69.4926 18.4785C69.9752 18.0511 70.2786 17.4582 70.4027 16.6998ZM81.565 12.5219C81.9649 11.9841 82.4819 11.5567 83.1162 11.2395C83.7643 10.9224 84.4813 10.7638 85.2672 10.7638C86.4806 10.7638 87.4527 11.1637 88.1835 11.9634C88.9281 12.7632 89.3004 13.8594 89.3004 15.252C89.3004 15.6932 89.2591 16.1758 89.1763 16.6998C88.9557 17.8994 88.5489 18.9543 87.956 19.8643C87.3631 20.7606 86.6461 21.45 85.805 21.9326C84.9777 22.4152 84.1021 22.6565 83.1783 22.6565C82.3785 22.6565 81.7167 22.5048 81.1927 22.2015C80.6825 21.8843 80.3171 21.45 80.0965 20.8985L79.807 22.5117H75.7324L78.4419 7.20635H82.5164L81.565 12.5219ZM85.0397 16.6998C85.0811 16.493 85.1018 16.2931 85.1018 16.1C85.1018 15.5347 84.9363 15.0934 84.6054 14.7763C84.2883 14.4592 83.8746 14.3006 83.3644 14.3006C82.7715 14.3006 82.2269 14.5143 81.7305 14.9418C81.2479 15.3692 80.9445 15.9552 80.8204 16.6998C80.7791 16.9066 80.7584 17.0997 80.7584 17.2789C80.7584 17.8581 80.9169 18.3131 81.2341 18.644C81.565 18.9611 81.9856 19.1197 82.4957 19.1197C83.1024 19.1197 83.6471 18.906 84.1297 18.4785C84.6123 18.0373 84.9156 17.4444 85.0397 16.6998ZM96.5743 7.20635L93.8649 22.5117H89.7903L92.4998 7.20635H96.5743ZM103.475 10.7638C104.991 10.7638 106.191 11.1706 107.073 11.9841C107.97 12.7976 108.418 13.9076 108.418 15.3141C108.418 15.7829 108.383 16.1965 108.314 16.555C108.232 16.9963 108.149 17.3134 108.066 17.5065H100.393C100.379 17.5892 100.372 17.7133 100.372 17.8787C100.372 18.4027 100.496 18.7888 100.744 19.037C101.006 19.2852 101.351 19.4093 101.779 19.4093C102.454 19.4093 102.992 19.1059 103.392 18.4992H107.694C107.377 19.299 106.901 20.016 106.267 20.6503C105.646 21.2707 104.909 21.7602 104.054 22.1187C103.213 22.4772 102.316 22.6565 101.365 22.6565C99.8481 22.6565 98.6416 22.2428 97.7454 21.4155C96.8491 20.5882 96.401 19.4506 96.401 18.0028C96.401 17.5892 96.4423 17.1548 96.5251 16.6998C96.7457 15.4864 97.18 14.4385 97.8281 13.556C98.4899 12.6598 99.3035 11.9703 100.269 11.4877C101.248 11.0051 102.316 10.7638 103.475 10.7638ZM104.323 15.6864C104.35 15.4933 104.364 15.3692 104.364 15.3141C104.364 14.8728 104.226 14.5419 103.95 14.3213C103.674 14.0869 103.316 13.9697 102.875 13.9697C102.365 13.9697 101.923 14.1145 101.551 14.404C101.179 14.6936 100.903 15.121 100.724 15.6864H104.323ZM109.27 16.6998C109.491 15.5002 109.897 14.4523 110.49 13.556C111.083 12.6598 111.793 11.9703 112.621 11.4877C113.462 11.0051 114.344 10.7638 115.268 10.7638C116.068 10.7638 116.73 10.9224 117.254 11.2395C117.778 11.5567 118.143 11.9841 118.35 12.5219L118.639 10.9086H122.693L120.646 22.5117H116.592L116.881 20.8985C116.482 21.4362 115.958 21.8637 115.31 22.1808C114.661 22.4979 113.944 22.6565 113.158 22.6565C111.945 22.6565 110.973 22.2566 110.242 21.4569C109.511 20.6434 109.146 19.5403 109.146 18.1476C109.146 17.6926 109.187 17.21 109.27 16.6998ZM117.626 16.6998C117.667 16.493 117.688 16.2999 117.688 16.1207C117.688 15.5416 117.523 15.0934 117.192 14.7763C116.875 14.4592 116.461 14.3006 115.951 14.3006C115.344 14.3006 114.799 14.5143 114.317 14.9418C113.834 15.3554 113.531 15.9414 113.407 16.6998C113.365 16.9066 113.345 17.1066 113.345 17.2996C113.345 17.8787 113.503 18.3269 113.82 18.644C114.151 18.9611 114.572 19.1197 115.082 19.1197C115.689 19.1197 116.233 18.906 116.716 18.4785C117.199 18.0511 117.502 17.4582 117.626 16.6998ZM136.896 10.9086L134.828 22.5117H130.774L131.063 20.8571C130.608 21.3811 130.05 21.8085 129.388 22.1394C128.74 22.4566 128.023 22.6151 127.237 22.6151C126.093 22.6151 125.203 22.2911 124.569 21.643C123.935 20.995 123.618 20.0918 123.618 18.9336C123.618 18.5337 123.659 18.1063 123.742 17.6512L124.921 10.9086H128.974L127.878 17.1342C127.837 17.3134 127.816 17.4927 127.816 17.6719C127.816 18.1683 127.961 18.5613 128.251 18.8508C128.54 19.1266 128.933 19.2645 129.429 19.2645C130.009 19.2645 130.498 19.0852 130.898 18.7267C131.298 18.3682 131.567 17.8718 131.705 17.2376L132.821 10.9086H136.896ZM141.602 19.1404H146.546L145.946 22.5117H136.514L137.093 19.3059L142.595 14.2799H138.024L138.624 10.9086H147.828L147.269 14.1145L141.602 19.1404ZM147.99 16.6998C148.211 15.5002 148.617 14.4523 149.21 13.556C149.803 12.6598 150.513 11.9703 151.341 11.4877C152.182 11.0051 153.064 10.7638 153.988 10.7638C154.788 10.7638 155.45 10.9224 155.974 11.2395C156.498 11.5567 156.863 11.9841 157.07 12.5219L157.359 10.9086H161.413L159.366 22.5117H155.312L155.601 20.8985C155.201 21.4362 154.677 21.8637 154.029 22.1808C153.381 22.4979 152.664 22.6565 151.878 22.6565C150.665 22.6565 149.693 22.2566 148.962 21.4569C148.231 20.6434 147.866 19.5403 147.866 18.1476C147.866 17.6926 147.907 17.21 147.99 16.6998ZM156.346 16.6998C156.387 16.493 156.408 16.2999 156.408 16.1207C156.408 15.5416 156.242 15.0934 155.912 14.7763C155.594 14.4592 155.181 14.3006 154.671 14.3006C154.064 14.3006 153.519 14.5143 153.037 14.9418C152.554 15.3554 152.251 15.9414 152.127 16.6998C152.085 16.9066 152.065 17.1066 152.065 17.2996C152.065 17.8787 152.223 18.3269 152.54 18.644C152.871 18.9611 153.292 19.1197 153.802 19.1197C154.409 19.1197 154.953 18.906 155.436 18.4785C155.918 18.0511 156.222 17.4582 156.346 16.6998ZM171.355 10.8052C172.486 10.8052 173.368 11.1361 174.003 11.798C174.651 12.446 174.975 13.3492 174.975 14.5074C174.975 14.8935 174.933 15.3072 174.851 15.7484L173.651 22.5117H169.597L170.693 16.2862C170.735 16.0793 170.755 15.8932 170.755 15.7277C170.755 15.2313 170.611 14.8452 170.321 14.5695C170.045 14.2937 169.652 14.1558 169.142 14.1558C168.563 14.1558 168.074 14.3351 167.674 14.6936C167.274 15.0521 167.005 15.5485 166.867 16.1827L165.75 22.5117H161.676L163.744 10.9086H167.798L167.508 12.5632C167.963 12.0393 168.522 11.6187 169.184 11.3016C169.845 10.9706 170.569 10.8052 171.355 10.8052ZM176.227 16.6998C176.448 15.5002 176.854 14.4523 177.447 13.556C178.04 12.6598 178.757 11.9703 179.598 11.4877C180.439 11.0051 181.322 10.7638 182.246 10.7638C182.99 10.7638 183.625 10.9224 184.149 11.2395C184.686 11.5429 185.072 11.9634 185.307 12.5012L186.238 7.20635H190.312L187.603 22.5117H183.528L183.838 20.8985C183.425 21.4362 182.901 21.8637 182.266 22.1808C181.632 22.4979 180.922 22.6565 180.136 22.6565C178.923 22.6565 177.944 22.2566 177.199 21.4569C176.468 20.6434 176.103 19.5403 176.103 18.1476C176.103 17.6926 176.144 17.21 176.227 16.6998ZM184.583 16.6998C184.624 16.493 184.645 16.2999 184.645 16.1207C184.645 15.5416 184.48 15.0934 184.149 14.7763C183.831 14.4592 183.418 14.3006 182.908 14.3006C182.301 14.3006 181.756 14.5143 181.274 14.9418C180.791 15.3554 180.488 15.9414 180.364 16.6998C180.322 16.9066 180.302 17.1066 180.302 17.2996C180.302 17.8787 180.46 18.3269 180.777 18.644C181.108 18.9611 181.529 19.1197 182.039 19.1197C182.646 19.1197 183.19 18.906 183.673 18.4785C184.155 18.0511 184.459 17.4582 184.583 16.6998ZM195.311 22.6565C194.304 22.6565 193.408 22.4566 192.622 22.0567C191.85 21.6568 191.25 21.0915 190.823 20.3607C190.395 19.6299 190.182 18.775 190.182 17.796C190.182 16.4723 190.492 15.2727 191.112 14.1972C191.747 13.1217 192.615 12.2806 193.718 11.6739C194.821 11.0672 196.056 10.7638 197.421 10.7638C198.427 10.7638 199.317 10.9638 200.089 11.3636C200.875 11.7635 201.481 12.3357 201.909 13.0803C202.35 13.8111 202.571 14.666 202.571 15.645C202.571 16.9825 202.253 18.189 201.619 19.2645C200.985 20.3262 200.116 21.1604 199.013 21.7671C197.91 22.36 196.676 22.6565 195.311 22.6565ZM195.931 19.1611C196.414 19.1611 196.841 19.0094 197.214 18.7061C197.6 18.4027 197.889 18.0097 198.082 17.5271C198.289 17.0445 198.393 16.5481 198.393 16.038C198.393 15.4588 198.241 15.0176 197.938 14.7143C197.648 14.4109 197.269 14.2592 196.8 14.2592C196.304 14.2592 195.869 14.4109 195.497 14.7143C195.139 15.0176 194.856 15.4106 194.649 15.8932C194.456 16.3758 194.36 16.8791 194.36 17.403C194.36 17.9822 194.504 18.4234 194.794 18.7267C195.083 19.0163 195.463 19.1611 195.931 19.1611Z" fill="#3C0675"/>
</svg>
